<svg version="1.1" xmlns="http://www.w3.org/2000/svg" xmlns:xlink="http://www.w3.org/1999/xlink" width="110.36716" height="185.33067" viewBox="0,0,110.36716,185.33067"><g transform="translate(-176.55743,-102.41121)"><g data-paper-data="{&quot;isPaintingLayer&quot;:true}" fill-rule="nonzero" stroke="none" stroke-width="1" stroke-linecap="butt" stroke-linejoin="miter" stroke-miterlimit="10" stroke-dasharray="" stroke-dashoffset="0" style="mix-blend-mode: normal"><g><path d="M213.55189,249.67889l-0.7303,2.4129l-1.89877,7.31076l0.21909,3.72841l0.7303,0.95036h3.28634l2.84816,0.51121l2.11689,0.8043l0.87636,3.1432l-0.58424,4.09453l-2.55604,4.82483l-5.76935,4.24059l-3.4324,0.8043l-1.9718,-1.09739l-1.24151,-1.46157l-5.69632,5.11695l-3.4324,1.31648l-3.4324,-0.51218l-2.48301,-1.24248l-2.11786,-1.97375l-0.58424,-1.75466v-2.77805l-1.9718,0.8043h-3.06725l-2.76734,-2.04775l-1.68747,-3.07017l-0.65727,-2.92411l0.58424,-2.63199l2.7021,-3.58235l0.80333,-0.95036c0,0 -2.62907,-2.48496 -2.62907,-2.70502c0,-0.21909 0,-2.48496 0,-2.48496l2.11786,-3.43629l4.60087,-2.63199l3.35937,-0.36515l3.14028,1.02339l2.0088,-2.63199l3.32334,-1.38854l3.4324,0.7303l3.72452,6.28737l0.94939,1.02339l7.15691,-7.31076z" fill="#ffffff"/><path d="M205.22845,281.41762c-0.15677,0.10322 -0.32133,0.17917 -0.44499,0.29796c-1.3603,1.30772 -2.62225,2.73715 -4.09161,3.90466c-1.53849,1.22106 -3.33989,2.0088 -5.37207,2.11202c-2.6651,0.13437 -4.64761,-1.15484 -6.47628,-2.92119c-1.32135,-1.27753 -2.37006,-2.64368 -2.53559,-4.58724c-1.13147,-0.06037 -2.25126,-0.05453 -3.3506,-0.19572c-1.59886,-0.20643 -2.83258,-1.0565 -3.7956,-2.35545c-1.11297,-1.50149 -2.23179,-2.99617 -2.49859,-4.91344c-0.27362,-1.96693 -0.0224,-3.86863 0.82864,-5.67003c0.27557,-0.58132 0.6154,-1.13926 0.98444,-1.668c0.47129,-0.67674 1.22495,-0.9007 1.70013,-1.52486c-1.83256,-0.54432 -2.89879,-3.02538 -2.51807,-4.77907c0.66701,-3.06822 2.43822,-5.35746 5.28735,-6.63305c1.73227,-0.77509 3.46745,-1.79945 5.49671,-1.54726c1.01463,0.12464 2.01075,0.39533 3.02733,0.60177c1.07695,-0.85299 2.22789,-1.90948 3.52198,-2.74689c1.38562,-0.89778 3.02441,-0.77412 4.56679,-0.51023c1.90364,0.32523 3.38858,2.96403 4.2367,4.44897c0.556,0.97373 1.12563,2.20939 1.87443,3.04291c1.01073,-0.57158 1.68942,-1.73227 2.5093,-2.53754c0.87928,-0.86467 1.80822,-1.69721 2.68068,-2.58038c0.64656,-0.65629 1.21619,-1.36906 2.0127,-1.81893c0.13632,-0.0779 1.88222,-0.90265 1.90851,-0.38657c0.06037,1.18211 -0.53847,2.24055 -0.9971,3.28731c-0.43428,0.99126 -0.7673,2.0682 -1.10713,3.1023c-0.7673,2.33598 -1.12174,4.81704 -0.50147,7.23189c0.1889,0.73224 0.3038,1.43917 1.55894,1.32914c1.7235,-0.1519 3.55217,-0.07303 5.22017,0.35639c1.779,0.45863 2.80629,1.95135 2.88321,3.84136c0.14119,3.46064 -1.03897,6.51912 -2.63491,9.57371c-0.95328,1.8238 -2.68263,2.42946 -3.92511,3.72257c-0.09932,0.10322 -0.27849,0.13632 -0.36028,0.24733c-1.24637,1.66313 -3.262,1.76245 -4.99134,2.33306c-2.23471,0.73711 -3.33308,-0.04771 -4.43826,-1.81503c-0.05258,-0.08277 -0.14801,-0.14119 -0.25901,-0.24246zM211.58009,252.74517c-1.60763,1.69429 -3.00104,3.26784 -4.51226,4.71967c-1.2269,1.18016 -2.3944,0.81014 -3.02927,-0.73614c-0.54626,-1.32914 -1.06331,-2.70989 -1.85788,-3.88713c-1.01852,-1.51123 -2.07112,-3.03804 -4.37886,-2.8725c-1.7089,0.12366 -3.92413,1.79069 -4.15685,3.47037c-0.05842,0.42455 -0.44694,0.92115 -0.82572,1.14413c-0.31159,0.18306 -1.00489,0.18696 -1.23177,-0.03505c-1.20158,-1.17627 -2.42653,-1.82087 -4.23475,-1.43236c-3.16657,0.67869 -5.87938,1.8238 -7.20365,5.07703c-0.53458,1.31161 -0.49173,2.52878 0.1558,3.78489c0.519,1.00878 1.47715,0.76146 2.29411,0.93089c0.31646,0.06524 0.64753,0.06134 0.96886,0.11198c1.03605,0.16553 1.34667,0.77898 0.92894,1.71669c-0.4187,0.93673 -1.29701,0.70303 -2.00394,0.77509c-1.17627,0.12074 -2.12273,0.45863 -2.7985,1.53557c-1.73908,2.77124 -1.50247,5.56584 0.17819,8.13162c1.56284,2.38564 2.9874,4.16075 6.8015,2.61154c0.63292,-0.25609 1.12174,-0.85299 1.74298,-1.15679c0.39728,-0.19377 1.00392,-0.31938 1.36127,-0.14898c0.50244,0.23954 0.71861,0.75756 0.19475,1.3379c-0.32425,0.36125 -0.45181,0.89486 -0.75756,1.27948c-1.1529,1.44696 -0.54529,2.55117 0.3817,3.53464c0.57158,0.60566 1.18795,1.18406 1.85301,1.68358c1.34959,1.01365 2.9358,1.49954 4.56095,1.13732c1.03994,-0.23077 2.00978,-0.90654 2.9319,-1.50539c2.17337,-1.40996 4.17146,-2.99032 5.26009,-5.48697c0.21714,-0.49952 0.89973,-0.96205 1.44794,-1.08474c0.31062,-0.06913 0.91141,0.51218 1.1529,0.93186c0.35249,0.6115 0.40312,1.39828 0.75854,2.00686c0.42649,0.73127 1.05358,1.40899 2.03899,1.18211c2.78097,-0.64169 5.08774,-2.15389 7.07999,-4.13933c1.59594,-1.59107 2.43043,-3.62714 2.92801,-5.78688c0.29894,-1.29506 0.63974,-2.63102 0.60469,-3.94069c-0.03895,-1.52583 -1.37101,-2.56091 -2.88321,-2.40024c-1.07305,0.11393 -2.12176,0.48686 -3.17436,0.76925c-1.0935,0.29407 -2.47912,-0.22006 -2.9874,-1.20937c-1.07987,-2.09741 -1.38757,-4.33602 -0.92894,-6.63694c0.34567,-1.73713 0.8452,-3.44408 1.33985,-5.41296z" fill="#30419a"/></g><path d="M230.2757,225.56058l1.82574,9.06543l-0.43818,1.31551l-13.29141,-0.65824l-2.04483,-0.95036l-0.7303,-1.38854l6.25232,-8.91937l8.42666,1.53557" fill="#ef463c"/><g><path d="M266.42542,135.49348l1.53362,2.19284l1.02242,41.30562l-0.7303,3.80144l-23.88073,7.1647l-0.80333,2.3389l2.40998,2.26684l3.19676,2.48496l4.61743,1.97375l4.1627,0.87733l2.77513,0.51218l3.21331,0.36515l1.17237,3.58235l-0.5151,2.19284l-3.87058,0.8043l-6.49965,-1.16945l-5.5561,-2.4129l-3.93776,-2.48496l-1.89877,7.52985l-2.40998,6.50646l-4.96602,7.45682l-5.33117,2.26587l-4.89299,-0.43818l-3.50543,-1.75466l-3.28634,-4.53271l-0.87636,-5.92125l0.7303,-4.16756l0.14606,-1.97375l-6.71874,2.04678l-9.12872,1.6086l-2.84816,-1.24248l3.4324,-5.33701h3.35937l6.8648,-1.16945l7.66812,-5.11792l1.75271,-2.99714l0.14606,-1.53557l-15.92048,-7.45682l-2.40998,-1.46157l-0.58424,-1.02339v-25.8389v-19.77938l15.92048,-4.97187l27.02101,-3.50932l19.42591,7.01865" fill="#afd7f2"/><path d="M181.63789,172.70457l1.02242,-2.11981l10.29719,-7.11115l10.88143,-7.14523l4.89299,-1.75369l6.20753,1.16945l3.28634,3.9475l1.31454,7.60288l-2.11786,6.72555l-4.45481,3.07114h-8.47145l-20.30227,-2.99714l-2.55604,-1.38951" fill="#f7ec1e"/><path d="M231.66327,105.08097l1.7459,-1.46157l12.27581,22.22441l3.17046,7.23676l-2.14805,2.33987l-6.28056,2.26587l-7.01767,0.87733c0,0 -6.49283,-1.90072 -6.56586,-1.90072c-0.07303,0 -2.26392,-2.41193 -2.77513,-3.50932c-0.51121,-1.09642 0.65727,-4.67877 0.65727,-4.67877z" fill="#f7ec1e"/><path d="M268.10511,145.72836l8.90963,1.02339l8.90963,2.70502l-2.48301,3.36326l-14.45989,11.8425l-0.87636,-18.93418" fill="#f7ec1e"/><path d="M244.22438,199.53472v4.09356l-1.46059,2.85108l-2.92119,0.58521l-2.62907,-0.87733l-1.75271,-2.99714v-2.99714l2.77513,-2.26684l3.28634,-0.95036l2.7021,2.55896" fill="#f7ec1e"/><path d="M243.93226,158.53583l-3.35937,2.69139c0,0 -4.96602,1.38854 -6.15397,1.38854c-1.18892,0 -2.6096,-2.70502 -3.19383,-3.50932c-0.58424,-0.80333 -0.14606,-3.80144 0,-4.53174c0.14606,-0.73127 10.88143,-3.2172 10.88143,-3.2172z" fill="#ffffff"/><path d="M262.99303,154.13554c0,0 -5.4042,2.99714 -5.62329,2.85108c-0.21909,-0.14606 -3.72452,0.58521 -3.72452,0.58521l-1.73032,-1.24345l-0.75269,-2.70405l0.75269,-2.85205l3.62909,-2.48496l4.45481,-0.73127z" fill="#ffffff"/><path d="M262.33576,179.21103l-23.95376,6.65252c0,0 -1.53362,-0.36515 -1.53362,-0.58424c0,-0.22006 -1.38757,-13.23299 -1.38757,-13.23299l26.29071,-6.87161z" fill="#fcf6b6"/><path d="M202.74349,199.38866v3.43532l-0.80333,3.2172l-2.19089,2.11981l-3.79755,1.68163h-4.6739l-3.57846,-0.65824l-1.9718,-2.99714c0,0 0,-1.89975 0,-1.93772c0,-0.03798 1.53362,-1.35251 1.53362,-1.35251h1.89877c0,0 5.98844,1.6086 6.28056,1.31648c0.29212,-0.29212 1.16848,0 1.16848,0l0.87636,-1.24248c0,0 -0.21909,-1.38951 -0.43818,-1.6086c-0.21909,-0.21909 -1.67968,-1.75466 -1.67968,-1.75466c0,0 -3.65149,-3.2172 -3.79755,-3.43629c-0.14606,-0.21909 -0.80333,-2.41193 -0.80333,-2.41193l0.94939,-1.68163h3.65149l5.69632,3.36229z" fill="#ef463c"/><path d="M270.95327,202.02066l0.94939,2.48496l2.11786,1.02339l2.99422,0.43915l2.84816,0.43818l2.11786,2.04678l-0.7303,2.26684l-2.26392,1.16945h-4.23573l-3.79755,-0.95036l-3.28634,-2.26587l-2.55215,-4.09453v-4.82483l1.09155,-2.70502l3.94361,-2.99714l4.30875,-0.58521l2.55604,1.68163l0.36515,1.82769l-3.06725,1.90072c0,0 -2.48301,1.46254 -2.77513,1.75466z" fill="#ef463c"/><path d="M204.03465,202.02942c7.34874,1.00392 15.79487,-3.09354 18.22628,-8.52403c-1.37296,-0.69914 -2.73618,-1.4343 -4.13251,-2.09352c-1.40022,-0.66214 -2.84913,-1.22106 -4.25325,-1.87443c-1.66897,-0.77509 -3.32918,-1.5716 -4.9631,-2.4168c-1.09837,-0.56768 -2.13928,-1.24735 -3.21818,-1.85496c-0.47421,-0.2668 -0.99223,-0.45278 -1.46546,-0.72056c-1.06137,-0.60177 -0.82475,-1.72155 -0.98931,-2.66218c-0.24538,-1.40899 -0.28628,-2.82479 -0.36125,-4.2552c-2.97572,-0.42065 -6.15884,-0.7079 -9.18812,-0.98249c-1.5122,-0.13632 -2.90366,-0.36417 -4.38471,-0.66895c-1.09739,-0.22688 -12.13754,-1.90948 -8.77915,-4.59503c1.45865,-1.1675 2.94651,-2.33695 4.33212,-3.59014c1.11882,-1.01073 2.41875,-1.631 3.61449,-2.5317c3.27173,-2.46354 6.83169,-4.64177 10.34588,-6.74697c1.07208,-0.64266 2.15486,-1.24735 3.17923,-1.93383c0.31744,-0.21325 1.09545,-0.49173 1.27851,-0.81696c0.23759,-0.42357 -0.14314,-0.91336 -0.16164,-1.34764c-0.02142,-0.48881 0.11295,-0.9971 0.08082,-1.51804c-0.09056,-1.44502 -0.1743,-2.891 -0.24927,-4.33699c-0.11782,-2.28534 -0.13632,-4.57653 -0.26875,-6.86187c-0.0779,-1.32817 -0.29212,-2.64855 -0.45181,-3.97282c-0.16943,-1.3973 0.31451,-1.9387 1.69721,-2.27269c3.13444,-0.75659 6.24745,-1.60763 9.37312,-2.40317c0.52387,-0.1334 1.08376,-0.12756 1.59984,-0.28043c2.80921,-0.83643 5.60284,-2.06723 8.50456,-2.54825c-0.19864,0.03311 0.48102,-2.69723 0.55892,-2.93872c0.33983,-1.04773 0.30965,-2.17921 0.66993,-3.22402c1.44404,-4.18217 2.5317,-8.55616 4.09356,-12.67504c0.41773,-1.10031 0.60371,-2.28145 0.98152,-3.40708c0.38073,-1.14219 0.72056,-2.2834 1.07013,-3.42558c0.27167,-0.88415 0.84422,-1.71961 1.74395,-2.05847c0.33886,-0.12756 0.85007,-0.10029 1.1675,0.07011c1.06137,0.57158 1.66605,1.5122 2.16168,2.63004c0.5969,1.33985 1.4382,2.57746 2.22497,3.82676c1.84035,2.92216 3.10912,6.04589 4.6963,9.09853c0.96886,1.86469 1.95622,3.71965 2.86958,5.61355c0.58229,1.20548 1.33498,3.32334 2.43627,4.0848c0.78483,0.54237 1.84424,0.66895 2.71865,1.02534c1.1305,0.46057 2.23179,0.88123 3.38469,1.22398c3.83065,1.14024 7.56588,2.75663 11.3274,4.13154c0.78191,0.28628 1.76537,0.34665 2.30871,0.87149c0.61637,0.593 1.10129,1.56771 1.18406,2.42069c0.19767,2.0312 0.12464,4.08772 0.15872,6.1345c0.00682,0.39826 0.00097,0.79748 0.00097,1.03021c0.78288,0.09835 1.4752,0.18014 2.16655,0.27264c1.92506,0.25512 3.86084,0.44499 5.77032,0.79262c1.49954,0.27362 2.96598,0.74101 4.44702,1.12466c1.25611,0.32523 2.51125,0.65435 3.76736,0.98444c1.7644,0.46544 2.09255,1.6904 0.94062,3.14417c-0.99905,1.26001 -2.12078,2.34961 -3.19286,3.53464c-1.06039,1.17432 -2.13831,2.26782 -3.36229,3.28634c-2.73326,2.27269 -5.55805,4.43534 -8.36531,6.61649c-0.40118,0.31159 -0.92602,0.46544 -1.53265,0.75951c0,2.2834 0.01558,4.72843 -0.00779,7.17444c-0.00974,1.01657 -0.13437,2.0312 -0.14216,3.04583c-0.00584,0.7264 0.1334,1.45281 0.14216,2.17921c0.01655,1.25903 -0.02824,2.52196 -0.00195,3.78002c0.01461,0.75269 0.30478,1.67384 -0.51218,2.10326c-0.47226,0.2483 -0.81501,0.39339 -1.26098,0.67772c-0.55308,0.35346 -1.22106,0.60274 -1.82574,0.85883c-3.52393,1.4976 -7.27766,2.45088 -11.02165,3.37105c-1.21814,0.29991 -2.41096,0.62513 -3.65149,0.83157c-1.15971,0.1928 -2.28534,0.4966 -3.42266,0.77217c-0.73711,0.17917 -1.88222,0.27362 -2.52975,0.65629c-0.60566,0.35736 -0.52679,0.69719 -0.38949,1.45767c0.1704,0.94744 1.17919,1.71961 1.86177,2.31456c0.67577,0.59008 1.44794,1.10226 2.19771,1.5901c1.45865,0.94939 3.01564,1.75174 4.6593,2.33014c3.1432,1.10616 6.79761,1.54336 10.11413,1.35738c0.15677,-1.49175 1.86372,-3.13444 2.8209,-4.18022c1.4382,-1.56965 2.98643,-2.92898 5.20653,-3.40124c2.79266,-0.59398 6.05855,1.27072 6.65739,4.05851c0.08861,0.41286 -0.06232,1.10908 -0.35833,1.32817c-0.85688,0.6339 -1.81503,1.15192 -2.78584,1.60373c-1.34764,0.62513 -2.86569,0.98931 -3.3175,2.706c-0.26388,1.00294 0.42552,2.46062 1.40314,2.7245c0.72835,0.19669 1.49857,0.25414 2.25418,0.32425c1.54726,0.14411 3.12567,0.11587 4.63788,0.42455c1.0565,0.21617 1.89001,0.89973 2.21134,2.16168c0.28043,1.10421 0.55503,2.03217 -0.24538,3.05362c-0.69524,0.88707 -1.46741,1.48494 -2.53559,1.90754c-2.18408,0.86565 -4.40808,1.06234 -6.63305,0.53653c-1.51999,-0.35736 -3.10036,-0.78093 -4.29512,-1.94064c-0.67966,-0.65922 -1.36225,-1.35738 -2.08086,-1.97278c-0.15288,-0.13145 -1.68942,-1.40509 -1.62029,-1.44404c-1.48396,0.83059 -4.11206,0.70888 -5.75669,0.62806c-2.13344,-0.10516 -4.24254,-0.53068 -6.27569,-1.17627c-1.83645,-0.58326 -3.50738,-1.69819 -5.23185,-2.61349c-0.7673,-0.40605 -1.48104,-0.90849 -2.42653,-1.4976c-0.20254,0.81112 -0.45668,1.48007 -0.52776,2.1685c-0.33788,3.28342 -1.32038,6.46459 -2.72352,9.44323c-0.6115,1.29993 -1.43236,2.40803 -2.11689,3.63688c-0.81014,1.45183 -1.52876,2.77416 -2.77708,3.92121c-0.98444,0.9046 -1.88417,1.99128 -3.1023,2.59402c-0.37586,0.18501 -3.67875,1.55505 -3.71283,1.43723c0.72738,2.5132 1.43236,5.05755 2.24737,7.57172c0.63,1.94064 -0.26388,3.51906 -2.25711,3.57748c-2.6281,0.07692 -5.26009,0.13243 -7.86774,-0.50634c-1.09545,-0.26778 -2.29021,-0.14703 -3.44019,-0.17332c-1.71669,-0.03895 -3.12178,-0.6115 -4.32628,-1.93091c-0.76048,-0.83157 -0.47421,-1.60373 -0.19767,-2.30385c0.31354,-0.79554 0.93575,-1.4791 1.46936,-2.17726c1.23858,-1.61542 2.50249,-3.21136 3.75957,-4.81315c0.1334,-0.17138 0.26485,-0.35931 0.4372,-0.48492c0.73322,-0.53847 0.64071,-0.9562 0.07206,-1.66605c-0.94062,-1.17529 -1.88027,-2.43627 -2.43432,-3.81605c-0.66603,-1.66021 -1.07695,-3.46161 -1.32427,-5.23964c-0.26583,-1.91143 0.074,-3.82481 0.76438,-5.6525c0.07206,-0.18988 0.06232,-0.41091 0.0964,-0.65337c-1.28824,0.40605 -2.51222,0.8413 -3.76347,1.17529c-1.74492,0.46544 -3.49472,0.93868 -5.26983,1.25514c-2.61836,0.46544 -5.3302,0.77412 -7.86092,-0.07011c-1.11297,-0.37196 -1.8608,-0.08861 -2.80045,0.08179c-1.55505,0.28238 -3.12859,0.47323 -4.70019,0.65045c-2.33208,0.26193 -4.45774,-0.34081 -6.47336,-1.52973c-2.37882,-1.40217 -2.74787,-5.22601 -0.59884,-6.91932c0.85493,-0.67479 1.85106,-0.81988 2.86666,-0.48686c1.36906,0.44889 2.6836,1.09252 4.07701,1.42067c0.75367,0.17722 1.668,0.00876 2.42361,-0.2522c1.02534,-0.35346 1.23956,-1.13537 0.44986,-1.91143c-1.20743,-1.18406 -2.48691,-2.36811 -3.93192,-3.2211c-2.10618,-1.24345 -2.97572,-5.10234 -1.11687,-6.63402c0.75464,-0.62221 2.13442,-0.92602 3.10717,-0.73809c1.46352,0.28141 2.88516,1.00392 4.20846,1.74785c3.6583,2.05749 5.39641,5.24256 5.74501,9.62922zM227.66903,147.04484c0.09737,7.88721 0.07692,15.33625 0.31354,22.77846c0.23954,7.5172 0.73517,15.02465 1.12563,22.66259c0.4372,-0.06329 0.98249,-0.08082 1.49078,-0.22785c1.65924,-0.48005 3.28829,-1.07889 4.96213,-1.49954c3.49082,-0.87733 7.00209,-1.668 10.5046,-2.49762c4.30583,-1.02144 8.62919,-1.98057 12.91069,-3.09841c2.3798,-0.62124 4.74012,-1.39146 7.0128,-2.32819c1.25416,-0.51608 2.08573,-1.64268 1.95135,-3.19578c-0.0594,-0.67966 -0.11003,-1.3642 -0.09543,-2.04483c0.03311,-1.46741 0.18306,-2.93482 0.15385,-4.39931c-0.06134,-2.97961 -0.23467,-5.95825 -0.31062,-8.93787c-0.04577,-1.78679 0.00389,-3.57554 0.0185,-5.3633c0.00779,-0.91433 0.10808,-1.83451 0.03213,-2.74008c-0.13632,-1.62321 -0.56379,-3.24155 -0.53555,-4.85599c0.0779,-4.58627 -0.1928,-9.15014 -0.62708,-13.70622c-0.02629,-0.27459 -0.57255,-0.75075 -0.80722,-0.71277c-1.42846,0.23272 -2.84719,0.54918 -4.24838,0.91336c-1.80822,0.47031 -3.58333,1.07208 -5.39836,1.50831c-2.59304,0.62319 -5.17927,1.17042 -7.76258,1.81893c-0.91531,0.2298 -1.81893,0.47713 -2.73034,0.71667c-1.88709,0.49758 -3.66122,1.28338 -5.53371,1.81893c-2.06236,0.59105 -4.14809,1.09837 -6.22311,1.64073c-0.55892,0.14606 -1.12368,0.27362 -1.67968,0.43331c-1.62418,0.46544 -3.24544,0.94354 -4.52395,1.31648zM205.04831,178.32396c0,1.12368 -0.02434,2.14026 0.00682,3.15586c0.03019,1.02144 0.31354,1.8384 1.38172,2.35058c2.76052,1.32525 5.41783,2.87348 8.20854,4.12764c3.93484,1.76927 7.9544,3.35547 12.1502,5.10916c0,-2.57162 0.06134,-4.84333 -0.01753,-7.11018c-0.07011,-2.0536 -0.3486,-4.0994 -0.43039,-6.153c-0.10127,-2.51807 -0.08471,-5.04003 -0.13437,-7.56101c-0.03505,-1.81211 -0.07985,-3.62325 -0.14898,-5.43341c-0.05453,-1.40607 -0.20059,-2.81018 -0.21812,-4.21625c-0.01558,-1.32427 0.15385,-2.65244 0.11393,-3.97477c-0.07011,-2.37493 -0.29504,-4.74596 -0.34275,-7.12089c-0.04869,-2.40122 -0.24733,-2.73423 -2.38953,-3.71381c-4.10232,-1.87346 -8.19102,-3.7771 -12.26315,-5.71482c-1.31064,-0.62319 -2.54436,-1.40899 -3.82968,-2.08768c-0.7634,-0.40312 -1.55992,-0.74393 -2.53754,-1.20353c0.14314,5.46944 0.27751,10.61658 0.41773,15.98962c1.56284,-0.64266 2.97864,-1.38659 4.71091,-1.28338c2.21816,0.13243 4.46066,0.40897 6.1345,1.89001c1.30577,1.15484 2.3983,2.52391 3.32139,3.99911c1.0195,1.62516 1.25416,3.19091 1.45281,5.1004c0.12756,1.22008 0.27557,2.51904 0.15385,3.75276c-0.13437,1.36225 -0.70401,2.69236 -1.19087,3.96016c-0.55308,1.44112 -1.42749,2.69042 -2.47425,3.81605c-1.06916,1.14998 -1.96401,1.65924 -3.41877,2.19089c-2.71671,0.9932 -5.83167,0.3632 -8.65646,0.13048zM182.95243,172.08333c0.03992,0.14314 0.08082,0.2853 0.12172,0.42844c1.17042,0.33886 2.32819,0.34567 3.52295,0.60663c1.32038,0.28725 2.60278,0.73517 3.93776,0.95523c1.63392,0.26875 3.31263,0.61637 4.96505,0.69427c0.99807,0.04771 1.96888,0.20351 2.93872,0.35736c1.45378,0.23077 2.82674,0.58911 4.29707,0.69622c2.49372,0.18501 4.98452,0.45765 7.48117,0.55113c4.17049,0.15482 7.5357,-2.89587 8.06248,-6.99625c0.18598,-1.44404 0.16651,-2.88029 0.16651,-4.34965c-0.00097,-3.31847 -1.45086,-7.4724 -4.54537,-9.12093c-2.79947,-1.49273 -6.18513,-0.17138 -8.84244,1.00781c-0.81793,0.3632 -1.4791,1.08279 -2.29898,1.44209c-2.58136,1.13147 -5.0371,2.45575 -7.29324,4.1588c-1.91435,1.44404 -3.90271,2.79266 -5.80635,4.2513c-2.2649,1.73519 -4.47429,3.54243 -6.70705,5.31754zM233.58736,104.97289c-0.1558,-0.00195 -0.31062,-0.00487 -0.46544,-0.00682c-0.45181,0.93965 -1.01268,1.84424 -1.33498,2.82576c-0.66798,2.02925 -1.30382,4.06824 -1.93578,6.10821c-1.0156,3.27757 -1.91338,6.59605 -2.59694,9.96028c-0.57353,2.82869 -1.79069,5.52105 -1.88611,8.44029c-0.08374,2.54338 2.43627,3.47719 4.46553,4.40613c2.98935,1.36906 6.12671,1.24832 9.24459,0.4372c1.47617,-0.38462 2.93872,-0.8452 4.37302,-1.3642c1.30285,-0.47226 2.68555,-0.79554 3.72841,-1.84522c0.52874,-0.53263 0.56282,-1.07208 0.2892,-1.66995c-0.39047,-0.85591 -0.84812,-1.68163 -1.25027,-2.53462c-1.27072,-2.69334 -2.53657,-5.38862 -3.78684,-8.0917c-1.35154,-2.92022 -2.55701,-5.91736 -4.05948,-8.75675c-1.4382,-2.71865 -3.17825,-5.27859 -4.78491,-7.90863zM205.97919,137.19459c0.07206,0.1334 0.08861,0.22396 0.14119,0.25512c3.45479,2.02049 6.9758,3.85013 10.80938,5.12377c2.53851,0.84325 4.89689,2.23666 7.32148,3.41292c0.75367,0.36612 1.40314,0.63292 2.04094,-0.21714c0.21422,-0.28628 0.64558,-0.46447 1.01171,-0.57061c1.61152,-0.46155 3.24447,-0.84325 4.85112,-1.3194c3.01759,-0.89291 6.00986,-1.8754 9.03816,-2.73521c1.92117,-0.54626 3.90174,-0.88317 5.8268,-1.41775c1.86177,-0.51705 3.67583,-1.19769 5.52786,-1.74687c1.58036,-0.46934 3.1841,-0.86078 4.78004,-1.27656c1.51123,-0.39339 3.02635,-0.77412 4.53953,-1.16069c-0.00876,-0.10906 -0.01655,-0.21812 -0.02434,-0.32717c-4.32141,-1.64366 -8.34487,-4.03806 -13.16678,-5.32825c0.21519,0.05745 0.76146,1.54336 0.8598,1.80335c0.29212,0.77119 0.3038,1.37783 0.02045,2.15779c-0.49368,1.36614 -0.94549,2.09547 -2.27463,2.71865c-5.00302,2.34572 -10.69642,3.99424 -16.21845,2.65731c-1.58621,-0.38365 -3.37008,-1.24637 -4.81315,-2.03315c-1.49175,-0.81404 -3.07699,-1.74298 -3.30873,-3.76152c-0.02726,-0.23564 -0.09737,-0.46739 -0.16553,-0.78191c-5.63205,1.52486 -11.18037,3.02733 -16.79684,4.54732zM230.68661,195.1617c-0.03603,0.11295 -0.06524,0.25609 -0.09056,0.4372c-0.11782,0.84422 -0.34762,1.64073 -0.73517,2.40317c-1.16166,2.28534 -2.85595,3.74204 -4.79172,5.33604c-0.44402,0.36515 -0.88317,0.81014 -1.35738,1.15387c-0.8637,0.62416 -1.77024,1.17919 -2.75858,1.57842c-1.01171,0.40897 -1.94162,0.87636 -1.38757,2.11397c0.92504,2.06918 2.54436,3.56483 4.30875,4.83944c1.96596,1.42359 4.30486,2.17726 6.69342,2.45088c0.83741,0.0964 1.75758,-0.02532 2.58915,-0.08082c1.31551,-0.08764 2.51125,-0.24538 3.78586,-0.60079c1.88417,-0.52581 3.83942,-1.54628 4.54245,-3.50348c0.33107,-0.92407 0.94452,-2.06236 0.79651,-3.05849c-0.95036,-0.0185 -1.89098,0.43526 -2.87348,0.39339c-2.71086,-0.1149 -4.08577,-2.01367 -5.00302,-4.25423c-0.51121,-1.24735 -0.59787,-2.61252 0.07692,-3.90271c1.13245,-2.16363 2.77318,-3.69433 5.17148,-4.40126c1.02826,-0.30283 1.92896,-0.20254 2.81408,0.32328c0.36515,0.21519 0.70401,0.47421 1.07792,0.72932c-0.19085,-0.13048 0,-2.0312 0,-2.32429c0,-0.76243 0.06134,-1.5531 0,-2.31358c-0.07011,-0.86078 -0.08277,-0.81599 -0.86857,-0.70693c-0.58132,0.07985 -1.1675,0.21325 -1.75077,0.30283c-1.65826,0.25317 -3.24057,0.86954 -4.87547,1.31551c-1.3233,0.36125 -2.64757,0.81404 -3.92705,1.15679c-0.87344,0.2337 -1.24735,0.01558 -1.43723,0.61248zM269.12168,146.48105c0.2113,5.37207 0.4187,10.65747 0.63779,16.21066c5.6564,-3.65246 10.50557,-7.71584 15.12884,-12.54067c-5.08871,-2.13149 -10.30596,-2.61933 -15.76664,-3.66999zM239.11035,216.31696c-8.20952,3.13541 -14.87372,1.41191 -20.3013,-5.27275c0,1.40801 -0.20351,2.76734 0.03992,4.04293c0.6115,3.20357 2.09547,5.89593 4.93292,7.76842c2.4908,1.64463 5.11013,1.67189 7.78887,0.86759c2.854,-0.85688 4.75959,-2.94748 6.32827,-5.37596c0.39923,-0.61832 0.75659,-1.2639 1.21132,-2.03023zM278.62821,211.4522c1.01657,-0.25317 1.7644,-0.87051 1.96693,-2.04873c0.31354,-1.81893 -1.04481,-1.94746 -2.36519,-2.08865c-1.78874,-0.19085 -3.56775,0.01558 -5.37694,-0.63098c-2.46548,-0.8822 -3.262,-4.44995 -2.18992,-6.27472c0.59787,-1.0156 1.46254,-1.80919 2.45964,-2.42361c0.88609,-0.54432 2.21816,-0.71472 3.00298,-1.3194c1.76927,-1.36517 -2.24737,-2.43725 -3.1987,-2.30774c-1.60763,0.21909 -2.96209,1.07792 -4.19191,2.08962c-0.91141,0.74977 -2.20258,1.46059 -2.69042,2.59402c-0.39533,0.91433 -0.18501,2.64465 -0.06427,3.63104c0.32717,2.64952 1.85398,5.23964 4.10914,6.69147c1.42944,0.92115 5.89301,2.74397 8.53864,2.08768zM192.71212,208.86987c1.35348,-0.24635 2.73715,-0.38365 4.05169,-0.7634c2.35351,-0.67869 4.02443,-2.27853 4.70798,-4.59503c0.97373,-3.30192 -0.20448,-6.08971 -2.6651,-8.34779c-1.39049,-1.27656 -3.05849,-2.11007 -4.9261,-2.45088c-0.83449,-0.15288 -1.74395,-0.20448 -2.10618,0.85396c-0.32912,0.96107 0.07692,1.70403 0.84715,2.261c0.56184,0.40702 1.11687,0.87246 1.74882,1.12076c2.03023,0.79748 3.00883,2.45769 3.73231,4.34381c0.61929,1.6125 -0.06427,3.20162 -1.6086,3.94555c-1.24151,0.5969 -2.54241,0.54724 -3.79463,0.23467c-1.43723,-0.35931 -2.81603,-0.94841 -4.23086,-1.4012c-0.75367,-0.24051 -1.44794,-0.21714 -1.81016,0.68258c-0.37683,0.93673 -0.13243,1.99225 0.65824,2.49177c1.63684,1.03215 3.38079,1.70111 5.39544,1.62418zM236.11905,202.55523c0.44694,0.85786 0.77119,1.81503 1.36809,2.55117c1.07889,1.33109 3.12178,2.1091 4.80925,0.27946c2.01173,-2.1831 1.18406,-5.27859 -0.62611,-6.96217c-0.25999,-0.24246 -0.74588,-0.4002 -1.09934,-0.35833c-1.67189,0.19767 -4.42268,2.4499 -4.45189,4.48987zM223.99027,194.20258c-0.61929,1.22787 -1.14511,2.58428 -1.94551,3.75276c-0.55697,0.81404 -0.25122,1.28824 0.2298,1.77998c1.64463,1.6865 2.0088,1.70111 3.49666,-0.09056c1.02729,-1.23761 1.95914,-2.57162 2.16947,-3.892c-1.37978,-0.54237 -2.56967,-1.00781 -3.95042,-1.55018zM210.46906,207.62934c0.90557,0.2892 2.46548,-0.4187 3.13638,-0.58326c0.87636,-0.21519 2.29606,-0.4781 3.01175,-1.02923c-0.45473,-0.46642 -1.26974,-3.37982 -2.04386,-3.30192c-1.76829,0.52387 -3.41779,1.01171 -5.11013,1.5122c-0.20059,0.06037 0.34081,2.77708 0.51413,3.03901c0.11977,0.18306 0.2892,0.29796 0.49173,0.3632zM259.17406,205.62443c0.27751,-0.12366 0.43818,-0.40215 0.48005,-0.98249c0.0964,-1.31843 -0.05745,-3.32431 -1.64366,-3.65246c-1.02436,-0.21227 -2.28145,-0.25706 -3.33308,-0.20059c0.06816,-0.00389 -0.35249,2.16071 -0.40605,2.35545c-0.25999,0.94354 -0.88415,1.56186 0.19572,1.88222c1.11103,0.33107 2.261,0.52289 3.41487,0.62806c0.56184,0.05161 0.99418,0.10127 1.29214,-0.03019zM201.51075,208.09478c2.13052,0.75075 4.24838,0.39533 6.38962,-0.10419c-0.1334,-1.25027 -0.26778,-2.50249 -0.38852,-3.62714c-1.32525,0 -2.58428,0 -3.79365,0c-0.74588,1.26001 -1.44599,2.44406 -2.20745,3.73133zM218.61334,234.48481c0.63682,0.03603 0.7449,-0.24343 0.99223,-0.79943c0.84228,-1.89975 1.96207,-3.72549 2.94748,-5.57071c0.25804,-0.48492 1.32622,-1.80432 1.01365,-2.35156c-0.56963,-0.99905 -1.47228,0.53263 -1.78874,0.89875c-0.84033,0.97276 -1.66995,1.95525 -2.44504,2.98156c-0.54529,0.72251 -2.4762,3.20455 -2.15876,4.05559c0.1704,0.45863 0.79943,0.7118 1.2454,0.76827c0.07011,0.00779 0.13437,0.01461 0.19377,0.01753zM252.13983,204.01583c0.02921,-0.00389 0.05745,-0.01168 0.08471,-0.02045c0.55795,-0.1889 0.66895,-1.60081 0.74977,-2.12176c0.07595,-0.49173 0.10224,-1.27851 -0.17917,-1.48591c-0.94744,-0.70011 -2.04094,-1.20158 -3.0283,-1.74979c-0.14119,-0.03019 -1.84717,2.36714 -1.83548,2.59791c0.03116,0.60469 1.55505,1.49857 2.02244,1.79556c0.41968,0.26778 1.59692,1.0711 2.18602,0.98444zM225.83841,226.62584c-0.44889,-0.32425 -1.09058,0.5336 -1.2493,0.87928c-0.56671,1.22593 -1.08376,2.52293 -1.68066,3.76931c-0.38754,0.80917 -0.72348,1.64755 -1.00294,2.49956c-0.06427,0.19961 0.16651,0.7079 0.31549,0.73127c1.03702,0.16164 2.08962,0.23272 3.06335,0.32717c-0.06427,-0.69719 -0.20935,-1.25709 -0.14801,-1.79556c0.14216,-1.22982 0.3447,-2.45088 0.50147,-3.67875c0.06427,-0.50439 0.65143,-2.32527 0.24246,-2.69918c-0.01363,-0.01266 -0.02726,-0.02337 -0.04187,-0.03311zM227.87059,234.59679c0.10419,0.47226 0.2337,0.57645 0.93478,0.64558c0.9562,0.09348 2.05944,0.01071 2.08183,-1.186c0.02434,-1.37393 -0.86272,-3.26589 -1.28143,-4.57945c-0.31159,-0.9747 -0.71667,-1.91922 -1.08084,-2.8764c-0.43039,0.32717 -0.69135,0.65629 -0.71764,1.00294c-0.10614,1.38854 -0.29115,2.87932 -0.26778,4.31265c0.01266,0.78093 0.1149,1.52778 0.25706,2.29411c0.02726,0.15093 0.04966,0.27849 0.074,0.38657zM222.03113,202.91649c0.08764,-0.68453 -0.72835,-1.15582 -1.13732,-1.65729c-0.40507,-0.49563 -0.80917,-0.99126 -1.21424,-1.48689c-1.06623,0.75464 -2.05749,1.45573 -3.06238,2.16752c0.37391,0.75659 0.62708,1.45573 1.04384,2.03802c0.19475,0.27264 0.86078,1.08376 1.16361,1.17042c0.40897,0.11782 0.99515,-0.37586 1.33109,-0.55503c0.57937,-0.30965 1.70597,-0.87733 1.86372,-1.60568c0.00487,-0.02434 0.00876,-0.04771 0.01168,-0.07108zM260.89366,202.19203c0.21227,1.33012 0.10516,3.32139 1.11492,3.75276c0.67187,0.2853 1.80822,-0.08958 2.11981,-0.74101c0.30867,-0.64558 -0.0224,-1.52291 -0.09737,-2.187c-0.22396,-1.95914 -1.74882,-1.72545 -3.36813,-1.64366c0.10906,0.21325 0.17917,0.4966 0.23077,0.81891zM245.75703,200.47243c2.32429,-2.66997 2.27755,-3.63201 0,-4.45384c0,1.50149 0,2.97767 0,4.45384z" data-paper-data="{&quot;origPos&quot;:null}" fill="#30419a"/><path d="M235.04795,183.01929c-0.06621,-0.87149 -0.10711,-1.75174 -0.20448,-2.66997c-0.18209,-1.7274 -0.12269,-3.49959 -0.11295,-5.24938c0.00487,-0.90167 -0.36028,-1.77706 -0.30575,-2.68652c0.07498,-1.27851 0.8043,-1.34083 1.8754,-1.64463c3.13541,-0.88999 6.26011,-1.81893 9.39455,-2.71086c1.8793,-0.53458 3.76054,-1.06526 5.65932,-1.52681c2.00296,-0.48784 4.03514,-0.85104 6.03518,-1.34667c1.12076,-0.27849 2.18992,-0.75659 3.30484,-1.06137c0.6115,-0.16651 1.29603,-0.29212 1.89488,-0.17235c1.00099,0.20156 0.55892,5.2153 0.5784,6.09555c0.0409,1.86859 0.04382,3.72257 0.04479,5.60382c0,0.74685 0.06524,1.46838 0.07303,2.21134c0.01655,1.65826 0.11101,2.27755 -1.50831,2.77416c-1.82574,0.55892 -3.67583,1.02047 -5.51326,1.53557c-2.52001,0.70595 -5.01763,1.49565 -7.55712,2.11786c-2.68749,0.65629 -5.42173,1.11395 -8.11507,1.74785c-1.18795,0.27946 -2.35058,0.71569 -3.47427,1.19671c-0.88415,0.37975 -1.28045,-0.10419 -1.4791,-0.74198c-0.36904,-1.18892 -0.50342,-2.32332 -0.59008,-3.47232zM244.95176,170.45331c0.07206,0.55405 0.21519,1.06039 0.1889,1.55505c-0.19085,3.4509 0.58619,6.79956 1.06331,10.17743c0.02824,0.20351 0.3632,0.54529 0.50634,0.52095c0.87538,-0.14411 1.73616,-0.37586 2.60375,-0.57742c-0.27459,-4.28344 -0.54042,-8.42374 -0.81599,-12.72081c-1.31064,0.3856 -2.40317,0.7079 -3.54632,1.04481zM255.47778,180.5392c0.2337,-0.05063 0.50731,-0.14801 0.82085,-0.26485c1.11882,-0.41481 1.16458,-0.89973 1.06623,-2.10813c-0.14509,-1.779 -0.19475,-3.56483 -0.3486,-5.34286c-0.15288,-1.76342 -0.3817,-3.52003 -0.58424,-5.34091c-0.4372,0.09932 -0.64558,0.16748 -0.8598,0.1928c-1.04286,0.12172 -1.71571,0.50342 -1.50733,1.75369c0.10711,0.63292 0.03408,1.29993 0.01071,1.95038c-0.04966,1.40022 -0.02337,2.7761 0.27557,4.11888c0.28822,1.28922 0.02921,2.55994 0.09737,3.86376c0.05745,1.10616 0.39826,1.31356 1.02923,1.17724zM239.02856,172.31995c-0.12853,-0.16067 -0.28822,-0.25901 -0.48686,-0.27264c-0.62611,-0.04577 -1.62905,0.18501 -2.11884,0.44986c-0.08179,1.44112 0.22591,2.8355 0.35054,4.25909c0.17625,2.0088 0.3262,4.01956 0.47031,6.03031c0.15774,2.19966 0.36612,2.33306 2.45964,1.36906c0.3223,-0.14801 -0.26875,-5.4227 -0.29796,-6.01862c-0.04479,-0.9007 0.47615,-4.7518 -0.37683,-5.81706zM243.33829,171.11642c-0.60177,0.02824 -1.24345,-0.01071 -1.85301,0.11295c-0.34178,0.06913 -0.90849,0.42455 -0.89583,0.62221c0.10224,1.69526 0.30575,3.38566 0.4966,5.07508c0.08958,0.79456 0.21617,1.58426 0.3262,2.3759c0.21033,1.53168 0.42163,3.06238 0.65629,4.76543c0.84033,-0.34081 1.4158,-0.5745 1.82672,-0.74198c-0.1928,-4.2182 -0.37489,-8.21633 -0.55697,-12.2096zM259.78653,179.07374c0.28725,-0.07011 0.54139,-0.13437 0.60566,-0.16748c0.47713,-0.24927 0.68161,-0.52192 0.65337,-1.09058c-0.03213,-0.67382 0.15482,-1.35543 0.15872,-2.0351c0.01947,-3.05459 0.00876,-6.10918 0.00876,-9.45297c-1.04092,0.31744 -1.88806,0.55503 -2.71671,0.84812c-0.14411,0.05161 -0.30088,0.34275 -0.2892,0.51218c0.25609,3.84623 0.76438,7.79958 0.556,11.65749c0.00195,-0.03408 0.55795,-0.15969 1.02339,-0.27167zM252.40079,168.54772c-1.81309,0.26096 -2.25224,0.63098 -2.20063,1.51707c0.22785,3.82092 0.19572,7.49675 0.97276,11.25534c0.01071,0.05161 1.11784,-0.16067 1.21132,-0.21909c0.50244,-0.31062 0.41578,-0.50147 0.34567,-1.1344c-0.14995,-1.35251 -0.28238,-2.69042 -0.31354,-4.05266c-0.0555,-2.41582 -0.01558,-4.83262 -0.01558,-7.36627z" fill="#30419a"/><path d="M243.05785,150.01861c1.83061,-0.15969 3.14028,0.60566 4.09064,2.06918c0.93089,1.43333 2.11105,2.90172 1.19379,4.71285c-0.52289,1.03021 -1.32427,2.02536 -2.23568,2.73034c-2.14415,1.66118 -4.64372,2.64465 -7.26792,3.33892c-1.49857,0.39728 -2.93872,0.7264 -4.54537,0.55795c-1.68163,-0.1743 -2.80921,-0.98055 -3.52003,-2.32721c-0.98639,-1.86664 -1.53362,-3.86279 -0.65337,-5.97286c0.48297,-1.15582 1.17724,-1.99128 2.50249,-2.335c1.63002,-0.42357 3.17533,-1.17432 4.80341,-1.60665c1.84911,-0.49076 3.75178,-0.78677 5.63205,-1.1675zM240.60892,160.34015c-2.07891,-2.78974 -1.16458,-5.25327 -0.04577,-7.72557c-0.2074,-0.08277 -0.35541,-0.20448 -0.45863,-0.1743c-1.96986,0.57742 -3.9329,1.17432 -5.89886,1.76342c-2.07112,0.62124 -2.54046,2.05554 -2.15,4.48889c0.22006,1.37199 2.29021,2.89198 3.68459,2.67094c1.53557,-0.24441 3.04777,-0.6339 4.86865,-1.02339z" fill="#30419a"/><path d="M254.18369,158.53583c-1.89488,0.00389 -3.23376,-1.16361 -3.68265,-3.07893c-0.3262,-1.38659 -0.52387,-2.64757 0.04674,-4.01956c0.85299,-2.0497 2.39732,-3.43337 4.34576,-4.1812c1.68942,-0.64753 3.55022,-0.88804 5.35551,-1.17821c1.71571,-0.27751 3.92316,1.45281 4.50447,3.25518c0.65045,2.01367 0.45084,3.94263 -0.84812,5.53955c-0.74393,0.91433 -1.92214,1.51318 -2.98253,2.11689c-0.8413,0.4781 -1.77511,0.8822 -2.71671,1.07889c-1.31648,0.27362 -2.68068,0.3223 -4.02248,0.46739zM258.472,148.48888c-0.08666,-0.0594 -0.17332,-0.11977 -0.25901,-0.17917c-0.74588,0.25122 -1.49662,0.48881 -2.23568,0.75561c-2.19576,0.78872 -3.59306,2.27269 -4.01371,4.61548c-0.2483,1.39146 0.95523,3.09549 2.32332,2.96793c1.57647,-0.14703 3.1247,-0.60079 4.90663,-0.96789c-1.75953,-2.41972 -2.08865,-4.7372 -0.72153,-7.19197z" fill="#30419a"/><path d="M250.38128,164.20975c-0.58813,-0.13437 -1.13537,-0.556 -1.20158,-1.18698c-0.08666,-0.84228 0.67187,-1.43528 1.49857,-1.3048c0.48881,0.07692 1.17237,0.82572 1.2269,1.33401c0.11003,1.01073 -0.74296,1.33693 -1.52389,1.15776z" fill="#30419a"/></g></g></g></svg>